<svg xmlns="http://www.w3.org/2000/svg" viewBox="66.270 48.145 252.960 252.960" role="img" aria-label="upCarrera">
<path fill-rule="evenodd" fill="#006943" fill-opacity="1" d="M 258.101562 201.851562 L 258.097656 202.765625 C 256.886719 203.613281 255.597656 204.355469 254.398438 205.105469 L 231.855469 219.421875 C 230.574219 220.230469 229.339844 221.066406 228.058594 221.828125 L 201.699219 238.53125 C 198.363281 240.546875 194.972656 240.777344 191.671875 238.484375 C 187.875 235.851562 184.25 233.828125 180.496094 231.390625 L 176.765625 229.085938 C 173.539062 226.890625 160.71875 219.261719 157.710938 217.472656 C 155.160156 215.957031 152.644531 214.445312 150.109375 212.84375 L 134.816406 203.671875 L 134.8125 184.613281 L 117.636719 174.371094 L 117.621094 218.78125 C 118.945312 219.800781 155.488281 241.746094 157.292969 242.851562 C 168.992188 250.035156 180.164062 256.761719 191.660156 264.269531 C 195.617188 266.855469 199.9375 266.414062 203.78125 263.945312 L 213.5625 257.742188 C 215.238281 256.667969 216.816406 255.71875 218.46875 254.652344 L 238.042969 242.25 C 241.371094 240.210938 244.503906 238.070312 247.820312 236.042969 L 262.492188 226.738281 C 266.671875 224.164062 271.800781 220.652344 275.875 218.261719 C 276.449219 217.925781 276.683594 217.90625 276.683594 217.019531 L 276.691406 174.132812 C 276.167969 174.222656 260.996094 183.546875 258.710938 184.949219 C 257.789062 185.515625 258.097656 186.042969 258.101562 187.332031 Z M 258.101562 201.851562 "/>
<path fill-rule="evenodd" fill="#006943" fill-opacity="1" d="M 197.96875 185.804688 C 193.40625 185.804688 190.65625 183.992188 187.097656 181.726562 C 181.84375 178.378906 173.929688 174.054688 168.199219 170.613281 C 160.367188 165.90625 152.339844 161.398438 144.601562 156.695312 C 141.492188 154.808594 127.480469 147.097656 125.996094 145.285156 C 124.511719 143.472656 124.972656 141.40625 126.425781 139.933594 C 127.878906 138.464844 142.640625 129.632812 144.792969 128.289062 C 147.917969 126.335938 150.90625 124.441406 154.054688 122.535156 C 154.828125 122.070312 155.558594 121.554688 156.351562 121.085938 C 161.570312 118 167.160156 114.3125 172.558594 111.035156 C 174.140625 110.074219 175.628906 109.171875 177.199219 108.167969 C 178.027344 107.632812 178.71875 107.253906 179.507812 106.730469 C 182.683594 104.613281 187.605469 101.78125 191.113281 99.574219 C 191.6875 99.210938 199.9375 94.242188 200.453125 93.660156 L 182.492188 95.472656 L 182.714844 83.046875 C 181.910156 83.1875 177.421875 86.113281 176.46875 86.71875 C 174.492188 87.976562 172.410156 89.1875 170.414062 90.457031 C 166.386719 93.015625 162.292969 95.414062 158.222656 98.003906 L 97.480469 135.617188 C 95.34375 136.921875 93.230469 138.0625 91.925781 139.851562 C 90.117188 142.324219 90.539062 145.117188 92.375 147.097656 C 94.417969 149.300781 101.246094 152.988281 104.296875 154.75 C 108.496094 157.175781 112.566406 159.613281 116.710938 162.070312 C 124.949219 166.957031 133.316406 171.703125 141.566406 176.691406 L 153.894531 183.933594 C 164.234375 189.867188 174.578125 196.257812 184.914062 202.179688 C 187.035156 203.398438 188.902344 204.695312 191.566406 205.476562 C 197.082031 207.101562 203.394531 206.308594 207.773438 203.667969 C 219.9375 196.324219 232.066406 188.480469 244.242188 181.085938 L 262.382812 169.863281 C 264.339844 168.628906 266.507812 167.203125 268.519531 166.050781 C 272.449219 163.804688 276.65625 160.949219 280.710938 158.507812 C 284.820312 156.035156 288.820312 153.375 292.914062 150.96875 C 293.808594 150.441406 295.199219 149.539062 294.476562 148.078125 C 294.011719 147.128906 286.605469 143.15625 285.394531 142.476562 C 284.371094 141.902344 279.996094 139.160156 279.121094 138.96875 C 277.5625 138.628906 276.621094 139.605469 275.636719 140.21875 C 274.589844 140.875 273.566406 141.5 272.5 142.140625 C 268.402344 144.601562 264.46875 147.386719 260.34375 149.722656 C 257.285156 151.449219 251.484375 155.265625 248.152344 157.269531 C 240.191406 162.058594 231.859375 167.375 223.886719 172.308594 C 219.789062 174.84375 215.777344 177.394531 211.707031 179.863281 C 206.691406 182.902344 203.515625 185.800781 197.96875 185.804688 "/>
</svg>
