<svg xmlns="http://www.w3.org/2000/svg" viewBox="0 0 1035.73 353.425" role="img" aria-label="upCarrera">
<path fill-rule="evenodd" fill="#006943" fill-opacity="1" d="M 258.101562 201.851562 L 258.097656 202.765625 C 256.886719 203.613281 255.597656 204.355469 254.398438 205.105469 L 231.855469 219.421875 C 230.574219 220.230469 229.339844 221.066406 228.058594 221.828125 L 201.699219 238.53125 C 198.363281 240.546875 194.972656 240.777344 191.671875 238.484375 C 187.875 235.851562 184.25 233.828125 180.496094 231.390625 L 176.765625 229.085938 C 173.539062 226.890625 160.71875 219.261719 157.710938 217.472656 C 155.160156 215.957031 152.644531 214.445312 150.109375 212.84375 L 134.816406 203.671875 L 134.8125 184.613281 L 117.636719 174.371094 L 117.621094 218.78125 C 118.945312 219.800781 155.488281 241.746094 157.292969 242.851562 C 168.992188 250.035156 180.164062 256.761719 191.660156 264.269531 C 195.617188 266.855469 199.9375 266.414062 203.78125 263.945312 L 213.5625 257.742188 C 215.238281 256.667969 216.816406 255.71875 218.46875 254.652344 L 238.042969 242.25 C 241.371094 240.210938 244.503906 238.070312 247.820312 236.042969 L 262.492188 226.738281 C 266.671875 224.164062 271.800781 220.652344 275.875 218.261719 C 276.449219 217.925781 276.683594 217.90625 276.683594 217.019531 L 276.691406 174.132812 C 276.167969 174.222656 260.996094 183.546875 258.710938 184.949219 C 257.789062 185.515625 258.097656 186.042969 258.101562 187.332031 Z M 258.101562 201.851562 "/>
<path fill-rule="evenodd" fill="#006943" fill-opacity="1" d="M 197.96875 185.804688 C 193.40625 185.804688 190.65625 183.992188 187.097656 181.726562 C 181.84375 178.378906 173.929688 174.054688 168.199219 170.613281 C 160.367188 165.90625 152.339844 161.398438 144.601562 156.695312 C 141.492188 154.808594 127.480469 147.097656 125.996094 145.285156 C 124.511719 143.472656 124.972656 141.40625 126.425781 139.933594 C 127.878906 138.464844 142.640625 129.632812 144.792969 128.289062 C 147.917969 126.335938 150.90625 124.441406 154.054688 122.535156 C 154.828125 122.070312 155.558594 121.554688 156.351562 121.085938 C 161.570312 118 167.160156 114.3125 172.558594 111.035156 C 174.140625 110.074219 175.628906 109.171875 177.199219 108.167969 C 178.027344 107.632812 178.71875 107.253906 179.507812 106.730469 C 182.683594 104.613281 187.605469 101.78125 191.113281 99.574219 C 191.6875 99.210938 199.9375 94.242188 200.453125 93.660156 L 182.492188 95.472656 L 182.714844 83.046875 C 181.910156 83.1875 177.421875 86.113281 176.46875 86.71875 C 174.492188 87.976562 172.410156 89.1875 170.414062 90.457031 C 166.386719 93.015625 162.292969 95.414062 158.222656 98.003906 L 97.480469 135.617188 C 95.34375 136.921875 93.230469 138.0625 91.925781 139.851562 C 90.117188 142.324219 90.539062 145.117188 92.375 147.097656 C 94.417969 149.300781 101.246094 152.988281 104.296875 154.75 C 108.496094 157.175781 112.566406 159.613281 116.710938 162.070312 C 124.949219 166.957031 133.316406 171.703125 141.566406 176.691406 L 153.894531 183.933594 C 164.234375 189.867188 174.578125 196.257812 184.914062 202.179688 C 187.035156 203.398438 188.902344 204.695312 191.566406 205.476562 C 197.082031 207.101562 203.394531 206.308594 207.773438 203.667969 C 219.9375 196.324219 232.066406 188.480469 244.242188 181.085938 L 262.382812 169.863281 C 264.339844 168.628906 266.507812 167.203125 268.519531 166.050781 C 272.449219 163.804688 276.65625 160.949219 280.710938 158.507812 C 284.820312 156.035156 288.820312 153.375 292.914062 150.96875 C 293.808594 150.441406 295.199219 149.539062 294.476562 148.078125 C 294.011719 147.128906 286.605469 143.15625 285.394531 142.476562 C 284.371094 141.902344 279.996094 139.160156 279.121094 138.96875 C 277.5625 138.628906 276.621094 139.605469 275.636719 140.21875 C 274.589844 140.875 273.566406 141.5 272.5 142.140625 C 268.402344 144.601562 264.46875 147.386719 260.34375 149.722656 C 257.285156 151.449219 251.484375 155.265625 248.152344 157.269531 C 240.191406 162.058594 231.859375 167.375 223.886719 172.308594 C 219.789062 174.84375 215.777344 177.394531 211.707031 179.863281 C 206.691406 182.902344 203.515625 185.800781 197.96875 185.804688 "/>
<path fill-rule="evenodd" fill="#192725" fill-opacity="1" d="M 359.355469 183.824219 C 359.355469 188.75 357.949219 192.65625 355.140625 195.511719 C 352.308594 198.367188 348.546875 199.796875 343.785156 199.796875 C 339.621094 199.796875 336.621094 198.65625 334.789062 196.34375 C 332.976562 194.035156 332.074219 190.179688 332.074219 184.800781 L 332.074219 138.949219 L 311.792969 138.949219 L 311.792969 190.65625 C 311.792969 199.34375 313.863281 205.867188 318.027344 210.246094 C 322.195312 214.605469 328.429688 216.792969 336.765625 216.792969 C 341.546875 216.792969 345.855469 215.867188 349.691406 214.03125 C 353.523438 212.199219 356.878906 209.460938 359.785156 205.796875 L 359.785156 214.792969 L 379.636719 214.792969 L 379.636719 138.949219 L 359.355469 138.949219 Z M 359.355469 183.824219 "/>
<path fill-rule="evenodd" fill="#192725" fill-opacity="1" d="M 436.203125 195.128906 C 433.277344 199.128906 429.253906 201.128906 424.132812 201.128906 C 418.753906 201.128906 414.5625 199.175781 411.613281 195.273438 C 408.660156 191.367188 407.183594 185.820312 407.183594 178.65625 C 407.183594 170.992188 408.589844 165.132812 411.398438 161.136719 C 414.230469 157.136719 418.324219 155.136719 423.730469 155.136719 C 429.207031 155.136719 433.394531 157.160156 436.273438 161.183594 C 439.15625 165.207031 440.609375 171.015625 440.609375 178.65625 C 440.609375 185.632812 439.132812 191.128906 436.203125 195.128906 M 429.652344 136.300781 C 424.773438 136.300781 420.511719 137.324219 416.917969 139.375 C 413.320312 141.421875 410.058594 144.65625 407.109375 149.132812 L 407.109375 138.875 L 387.824219 138.875 L 387.824219 245.140625 L 407.535156 245.140625 L 407.535156 205.292969 C 410.058594 209.195312 413.203125 212.171875 416.988281 214.21875 C 420.773438 216.265625 425.082031 217.289062 429.914062 217.289062 C 439.078125 217.289062 446.578125 213.503906 452.386719 205.957031 C 458.195312 198.386719 461.097656 188.554688 461.097656 176.414062 C 461.097656 164.417969 458.195312 154.726562 452.386719 147.347656 C 446.578125 139.992188 438.984375 136.300781 429.652344 136.300781 "/>
<path fill-rule="evenodd" fill="#192725" fill-opacity="1" d="M 531.328125 193.964844 C 527.371094 197.164062 522.253906 198.777344 516.03125 198.777344 C 507.398438 198.777344 500.757812 195.785156 496.082031 189.804688 C 491.40625 183.84375 489.070312 175.363281 489.070312 164.425781 C 489.070312 153.117188 491.40625 144.519531 496.105469 138.628906 C 500.804688 132.742188 507.675781 129.796875 516.703125 129.796875 C 523.066406 129.796875 528.132812 131.292969 531.882812 134.285156 C 535.609375 137.273438 537.921875 141.621094 538.78125 147.324219 L 559.050781 147.324219 C 558.332031 135.847656 554.285156 126.992188 546.878906 120.707031 C 539.496094 114.421875 529.429688 111.289062 516.703125 111.289062 C 501.011719 111.289062 489 115.847656 480.648438 124.984375 C 472.292969 134.121094 468.105469 147.253906 468.105469 164.425781 C 468.105469 181.226562 472.199219 194.289062 480.414062 203.589844 C 488.609375 212.914062 500.085938 217.5625 514.875 217.5625 C 527.695312 217.5625 538.109375 214.199219 546.070312 207.445312 C 554.050781 200.691406 558.425781 191.578125 559.191406 180.128906 L 539.058594 180.128906 C 537.875 186.136719 535.308594 190.761719 531.328125 193.964844 "/>
<path fill-rule="evenodd" fill="#192725" fill-opacity="1" d="M 609.648438 185.210938 C 609.648438 190.476562 608.078125 194.617188 604.9375 197.636719 C 601.792969 200.675781 597.484375 202.195312 591.984375 202.195312 C 588.914062 202.195312 586.484375 201.378906 584.652344 199.761719 C 582.84375 198.148438 581.9375 195.972656 581.9375 193.234375 C 581.9375 190.59375 582.652344 188.511719 584.058594 187.011719 C 585.484375 185.492188 587.984375 184.253906 591.582031 183.246094 C 591.722656 183.199219 593.9375 182.710938 598.246094 181.796875 C 602.53125 180.882812 606.339844 179.691406 609.648438 178.171875 Z M 630.050781 208 C 629.40625 206.476562 629.074219 204.136719 629.074219 201.027344 L 629.074219 158.707031 C 629.074219 151.898438 626.242188 146.65625 620.597656 143.054688 C 614.933594 139.429688 606.816406 137.628906 596.199219 137.628906 C 586.535156 137.628906 578.941406 139.804688 573.464844 144.179688 C 567.964844 148.554688 565.226562 154.566406 565.226562 162.214844 L 565.226562 163.597656 L 584.222656 163.597656 L 584.222656 162.496094 C 584.222656 159.503906 585.320312 157.207031 587.511719 155.617188 C 589.699219 154.003906 592.84375 153.207031 596.9375 153.207031 C 601.414062 153.207031 604.601562 153.863281 606.507812 155.175781 C 608.410156 156.460938 609.363281 158.636719 609.363281 161.652344 C 609.363281 165.445312 605.054688 167.902344 596.4375 169 C 593.054688 169.421875 590.292969 169.773438 588.199219 170.101562 C 579.035156 171.480469 572.464844 174.007812 568.488281 177.703125 C 564.511719 181.398438 562.511719 186.757812 562.511719 193.796875 C 562.511719 201.378906 564.511719 207.226562 568.488281 211.34375 C 572.464844 215.4375 578.128906 217.496094 585.484375 217.496094 C 590.984375 217.496094 595.792969 216.46875 599.9375 214.433594 C 604.078125 212.394531 607.433594 209.449219 610.007812 205.566406 C 610.054688 207.34375 610.242188 209.027344 610.625 210.570312 C 611.003906 212.140625 611.53125 213.542969 612.21875 214.832031 L 633.359375 214.832031 L 633.359375 211.460938 C 631.8125 210.6875 630.714844 209.542969 630.050781 208 "/>
<path fill-rule="evenodd" fill="#192725" fill-opacity="1" d="M 730.921875 138.3125 C 730.644531 138.265625 730.296875 138.21875 729.859375 138.199219 C 729.441406 138.175781 728.839844 138.175781 728.078125 138.175781 C 723.308594 138.175781 719.214844 139.367188 715.765625 141.773438 C 712.320312 144.15625 709.308594 147.917969 706.742188 153.011719 L 706.742188 140.277344 L 688.4375 140.277344 L 688.4375 214.714844 L 708.152344 214.714844 L 708.152344 175.347656 C 708.152344 169.785156 709.519531 165.578125 712.226562 162.753906 C 714.957031 159.925781 719.003906 158.5 724.398438 158.5 L 730.992188 158.5 Z M 730.921875 138.3125 "/>
<path fill-rule="evenodd" fill="#192725" fill-opacity="1" d="M 681.859375 138.199219 C 681.441406 138.175781 680.839844 138.175781 680.078125 138.175781 C 675.308594 138.175781 671.214844 139.367188 667.765625 141.773438 C 664.316406 144.15625 661.308594 147.917969 658.738281 153.011719 L 658.738281 140.277344 L 640.4375 140.277344 L 640.4375 214.714844 L 660.152344 214.714844 L 660.152344 175.347656 C 660.152344 169.785156 661.519531 165.578125 664.226562 162.753906 C 666.957031 159.925781 671.003906 158.5 676.398438 158.5 L 682.992188 158.5 L 682.921875 138.3125 C 682.644531 138.265625 682.296875 138.21875 681.859375 138.199219 "/>
<path fill-rule="evenodd" fill="#192725" fill-opacity="1" d="M 751.40625 169.792969 C 751.835938 164.820312 753.3125 161.015625 755.832031 158.351562 C 758.378906 155.710938 761.855469 154.378906 766.261719 154.378906 C 771 154.378906 774.640625 155.6875 777.1875 158.328125 C 779.710938 160.941406 781.066406 164.773438 781.257812 169.792969 Z M 765.832031 137.707031 C 754.859375 137.707031 746.214844 141.210938 739.882812 148.238281 C 733.574219 155.269531 730.410156 164.867188 730.410156 177.058594 C 730.410156 189.414062 733.625 199.222656 740.050781 206.460938 C 746.453125 213.679688 755.167969 217.296875 766.140625 217.296875 C 775.09375 217.296875 782.664062 215.078125 788.875 210.640625 C 795.089844 206.179688 799.207031 200.0625 801.253906 192.214844 L 780.972656 192.214844 C 779.664062 195.042969 777.902344 197.117188 775.664062 198.472656 C 773.449219 199.804688 770.59375 200.484375 767.09375 200.484375 C 762.167969 200.484375 758.378906 199.011719 755.761719 196.046875 C 753.144531 193.078125 751.691406 188.664062 751.40625 182.828125 L 802.066406 182.828125 C 802.136719 182.195312 802.207031 181.519531 802.230469 180.820312 C 802.253906 180.09375 802.253906 179.042969 802.253906 177.617188 C 802.253906 164.84375 799.089844 154.988281 792.78125 148.074219 C 786.449219 141.164062 777.472656 137.707031 765.832031 137.707031 "/>
<path fill-rule="evenodd" fill="#192725" fill-opacity="1" d="M 851.714844 138.171875 C 851.285156 138.148438 850.664062 138.148438 849.878906 138.148438 C 844.976562 138.148438 840.761719 139.363281 837.214844 141.8125 C 833.667969 144.242188 830.574219 148.074219 827.933594 153.265625 L 827.933594 140.289062 L 809.101562 140.289062 L 809.101562 216.136719 L 829.382812 216.136719 L 829.382812 176.023438 C 829.382812 170.359375 830.789062 166.074219 833.574219 163.191406 C 836.382812 160.3125 840.546875 158.859375 846.09375 158.859375 L 852.878906 158.859375 L 852.808594 138.292969 C 852.523438 138.242188 852.164062 138.195312 851.714844 138.171875 "/>
<path fill-rule="evenodd" fill="#192725" fill-opacity="1" d="M 900.925781 186.320312 C 900.925781 191.691406 899.351562 195.917969 896.199219 198.996094 C 893.050781 202.097656 888.730469 203.648438 883.21875 203.648438 C 880.136719 203.648438 877.703125 202.8125 875.867188 201.167969 C 874.050781 199.519531 873.144531 197.300781 873.144531 194.507812 C 873.144531 191.8125 873.859375 189.6875 875.269531 188.160156 C 876.703125 186.609375 879.207031 185.34375 882.8125 184.316406 C 882.953125 184.269531 885.171875 183.769531 889.492188 182.839844 C 893.789062 181.90625 897.609375 180.691406 900.925781 179.140625 Z M 921.378906 209.566406 C 920.734375 208.015625 920.398438 205.628906 920.398438 202.453125 L 920.398438 159.28125 C 920.398438 152.335938 917.558594 146.992188 911.902344 143.316406 C 906.222656 139.617188 898.085938 137.777344 887.441406 137.777344 C 877.75 137.777344 870.136719 140 864.648438 144.460938 C 859.136719 148.925781 856.390625 155.058594 856.390625 162.863281 L 856.390625 164.269531 L 875.4375 164.269531 L 875.4375 163.148438 C 875.4375 160.09375 876.535156 157.753906 878.730469 156.132812 C 880.925781 154.484375 884.074219 153.675781 888.179688 153.675781 C 892.667969 153.675781 895.867188 154.34375 897.773438 155.679688 C 899.683594 156.992188 900.636719 159.210938 900.636719 162.289062 C 900.636719 166.15625 896.320312 168.660156 887.679688 169.78125 C 884.289062 170.210938 881.523438 170.570312 879.421875 170.90625 C 870.234375 172.3125 863.648438 174.890625 859.660156 178.660156 C 855.675781 182.429688 853.671875 187.898438 853.671875 195.082031 C 853.671875 202.8125 855.675781 208.78125 859.660156 212.980469 C 863.648438 217.15625 869.328125 219.257812 876.703125 219.257812 C 882.214844 219.257812 887.035156 218.207031 891.1875 216.128906 C 895.339844 214.054688 898.707031 211.046875 901.28125 207.085938 C 901.332031 208.898438 901.519531 210.617188 901.902344 212.191406 C 902.285156 213.792969 902.808594 215.222656 903.5 216.535156 L 924.695312 216.535156 L 924.695312 213.101562 C 923.144531 212.3125 922.046875 211.144531 921.378906 209.566406 "/>
<path fill-rule="evenodd" fill="#192725" fill-opacity="1" d="M 940.617188 135.332031 C 940.277344 135.785156 939.511719 136.609375 939.070312 136.925781 C 938.339844 137.441406 938.085938 137.664062 937.15625 138.125 C 934.597656 139.382812 931.613281 139.515625 928.960938 138.417969 C 927.757812 137.921875 926.460938 137.113281 925.566406 136.183594 L 924.984375 135.515625 C 923.671875 133.832031 922.859375 131.914062 922.75 129.664062 C 922.628906 127.292969 923.453125 124.832031 924.835938 123.027344 C 925.445312 122.234375 926.269531 121.453125 927.105469 120.910156 C 927.511719 120.648438 927.847656 120.457031 928.300781 120.238281 C 929.488281 119.667969 930.761719 119.277344 932.269531 119.203125 C 934.75 119.082031 936.976562 119.894531 938.878906 121.285156 C 939.191406 121.515625 939.289062 121.617188 939.554688 121.855469 L 940.1875 122.492188 C 940.378906 122.714844 940.539062 122.941406 940.738281 123.1875 C 940.832031 123.304688 940.910156 123.433594 940.992188 123.558594 C 941.085938 123.691406 941.144531 123.796875 941.234375 123.941406 C 943.421875 127.5625 943.125 131.992188 940.617188 135.332031 M 943.816406 124.679688 C 943.523438 123.964844 943.1875 123.304688 942.8125 122.699219 L 942.195312 121.808594 C 942.023438 121.585938 941.71875 121.179688 941.53125 120.992188 C 940.9375 120.386719 940.738281 120.230469 940.144531 119.734375 L 939.488281 119.273438 C 937.722656 118.125 935.574219 117.335938 933.335938 117.21875 C 930.851562 117.089844 928.238281 117.835938 926.25 119.09375 C 925.878906 119.332031 925.257812 119.753906 924.941406 120.042969 C 924.484375 120.460938 924.238281 120.652344 923.8125 121.148438 C 922.976562 122.109375 922.660156 122.582031 922.015625 123.84375 C 921.335938 125.1875 920.859375 126.839844 920.769531 128.566406 C 920.628906 131.25 921.363281 133.507812 922.640625 135.652344 C 923.042969 136.324219 923.445312 136.773438 923.929688 137.351562 C 924.277344 137.769531 925.066406 138.449219 925.515625 138.773438 C 928.9375 141.21875 933.234375 141.882812 937.222656 140.269531 C 938.515625 139.75 939.484375 139.164062 940.515625 138.320312 C 940.632812 138.222656 940.820312 138.078125 940.910156 137.984375 C 941.460938 137.394531 941.796875 137.128906 942.324219 136.390625 C 943.671875 134.492188 944.542969 132.277344 944.683594 129.773438 C 944.78125 127.96875 944.421875 126.171875 943.816406 124.679688 "/>
<path fill-rule="evenodd" fill="#192725" fill-opacity="1" d="M 934.019531 128.523438 C 933.03125 128.964844 931.796875 128.847656 930.636719 128.847656 L 930.636719 123.972656 C 931.707031 123.796875 932.90625 123.695312 933.917969 124.0625 C 935.582031 124.667969 935.757812 126.59375 935.023438 127.683594 C 934.824219 127.976562 934.425781 128.34375 934.019531 128.523438 M 935.03125 129.75 C 934.949219 129.707031 934.6875 129.621094 934.648438 129.542969 C 934.683594 129.507812 935.289062 129.246094 935.398438 129.179688 C 936.113281 128.746094 936.640625 128.234375 936.964844 127.34375 C 937.289062 126.460938 937.230469 125.351562 936.8125 124.492188 C 935.792969 122.398438 932.929688 122.375 930.933594 122.511719 C 930.210938 122.558594 929.59375 122.671875 928.910156 122.761719 L 928.910156 135.957031 L 930.621094 135.957031 C 930.625 134.691406 930.621094 133.425781 930.621094 132.164062 C 930.621094 131.539062 930.601562 130.886719 930.617188 130.265625 C 930.621094 130.109375 930.597656 130.144531 930.960938 130.144531 C 931.203125 130.144531 932.273438 130.117188 932.347656 130.167969 C 932.949219 130.148438 933.628906 130.386719 934.046875 130.785156 C 934.851562 131.554688 935.019531 133.023438 935.285156 134.171875 C 935.484375 135.019531 935.546875 135.179688 935.832031 135.957031 L 937.621094 135.957031 C 936.867188 134.132812 936.78125 131.878906 935.9375 130.613281 C 935.714844 130.285156 935.382812 129.941406 935.03125 129.75 "/>
<path fill-rule="nonzero" fill="#192725" fill-opacity="1" d="M 487.996094 259.144531 L 498.800781 259.144531 L 498.800781 262.421875 L 483.964844 262.421875 L 483.964844 231.554688 L 487.996094 231.554688 Z M 487.996094 259.144531 "/>
<path fill-rule="nonzero" fill="#192725" fill-opacity="1" d="M 518.285156 244.550781 C 517.605469 243.445312 516.683594 242.601562 515.519531 242.027344 C 514.351562 241.453125 513.058594 241.164062 511.644531 241.164062 C 509.605469 241.164062 507.871094 241.8125 506.4375 243.113281 C 505.007812 244.414062 504.1875 246.214844 503.980469 248.515625 L 519.304688 248.515625 C 519.304688 246.980469 518.964844 245.660156 518.285156 244.550781 M 523.335938 251.792969 L 503.9375 251.792969 C 504.085938 254.183594 504.902344 256.050781 506.394531 257.394531 C 507.886719 258.738281 509.695312 259.410156 511.820312 259.410156 C 513.5625 259.410156 515.015625 259.003906 516.183594 258.191406 C 517.347656 257.378906 518.167969 256.296875 518.640625 254.9375 L 522.980469 254.9375 C 522.328125 257.269531 521.03125 259.167969 519.082031 260.628906 C 517.132812 262.089844 514.714844 262.820312 511.820312 262.820312 C 509.515625 262.820312 507.457031 262.304688 505.640625 261.269531 C 503.824219 260.238281 502.402344 258.765625 501.367188 256.863281 C 500.335938 254.960938 499.820312 252.753906 499.820312 250.242188 C 499.820312 247.734375 500.320312 245.535156 501.324219 243.644531 C 502.328125 241.757812 503.738281 240.300781 505.554688 239.28125 C 507.371094 238.261719 509.457031 237.753906 511.820312 237.753906 C 514.121094 237.753906 516.160156 238.257812 517.933594 239.261719 C 519.703125 240.265625 521.070312 241.644531 522.027344 243.398438 C 522.988281 245.15625 523.46875 247.140625 523.46875 249.355469 C 523.46875 250.125 523.421875 250.9375 523.335938 251.792969 "/>
<path fill-rule="nonzero" fill="#192725" fill-opacity="1" d="M 544.945312 245.460938 C 544.207031 244.101562 543.210938 243.0625 541.957031 242.339844 C 540.703125 241.613281 539.320312 241.253906 537.816406 241.253906 C 536.3125 241.253906 534.9375 241.605469 533.699219 242.316406 C 532.457031 243.023438 531.46875 244.058594 530.730469 245.417969 C 529.992188 246.773438 529.621094 248.367188 529.621094 250.199219 C 529.621094 252.058594 529.992188 253.675781 530.730469 255.046875 C 531.46875 256.421875 532.457031 257.46875 533.699219 258.191406 C 534.9375 258.914062 536.3125 259.277344 537.816406 259.277344 C 539.320312 259.277344 540.703125 258.914062 541.957031 258.191406 C 543.210938 257.46875 544.207031 256.421875 544.945312 255.046875 C 545.683594 253.675781 546.054688 252.074219 546.054688 250.242188 C 546.054688 248.414062 545.683594 246.816406 544.945312 245.460938 M 527.011719 243.667969 C 528.015625 241.792969 529.394531 240.339844 531.148438 239.304688 C 532.90625 238.269531 534.863281 237.753906 537.019531 237.753906 C 539.144531 237.753906 540.988281 238.214844 542.554688 239.128906 C 544.117188 240.042969 545.285156 241.195312 546.054688 242.582031 L 546.054688 238.152344 L 550.128906 238.152344 L 550.128906 262.421875 L 546.054688 262.421875 L 546.054688 257.902344 C 545.257812 259.320312 544.066406 260.496094 542.488281 261.425781 C 540.910156 262.355469 539.070312 262.820312 536.976562 262.820312 C 534.820312 262.820312 532.871094 262.289062 531.128906 261.226562 C 529.386719 260.164062 528.015625 258.671875 527.011719 256.753906 C 526.007812 254.832031 525.503906 252.648438 525.503906 250.199219 C 525.503906 247.71875 526.007812 245.542969 527.011719 243.667969 "/>
<path fill-rule="nonzero" fill="#192725" fill-opacity="1" d="M 562.238281 238.863281 C 563.550781 238.09375 565.152344 237.710938 567.042969 237.710938 L 567.042969 241.871094 L 565.980469 241.871094 C 561.464844 241.871094 559.203125 244.324219 559.203125 249.226562 L 559.203125 262.421875 L 555.175781 262.421875 L 555.175781 238.152344 L 559.203125 238.152344 L 559.203125 242.09375 C 559.914062 240.707031 560.925781 239.628906 562.238281 238.863281 "/>
<path fill-rule="nonzero" fill="#192725" fill-opacity="1" d="M 588.921875 240.390625 C 590.75 242.175781 591.667969 244.75 591.667969 248.117188 L 591.667969 262.421875 L 587.679688 262.421875 L 587.679688 248.691406 C 587.679688 246.273438 587.074219 244.417969 585.867188 243.136719 C 584.65625 241.851562 583.003906 241.207031 580.90625 241.207031 C 578.78125 241.207031 577.089844 241.871094 575.835938 243.199219 C 574.578125 244.53125 573.953125 246.464844 573.953125 249.003906 L 573.953125 262.421875 L 569.921875 262.421875 L 569.921875 238.152344 L 573.953125 238.152344 L 573.953125 241.605469 C 574.75 240.367188 575.835938 239.40625 577.207031 238.726562 C 578.582031 238.050781 580.09375 237.710938 581.746094 237.710938 C 584.699219 237.710938 587.089844 238.601562 588.921875 240.390625 "/>
<path fill-rule="nonzero" fill="#192725" fill-opacity="1" d="M 595.832031 261.890625 C 595.296875 261.359375 595.035156 260.710938 595.035156 259.941406 C 595.035156 259.175781 595.296875 258.523438 595.832031 257.992188 C 596.363281 257.460938 597.011719 257.195312 597.777344 257.195312 C 598.515625 257.195312 599.144531 257.460938 599.660156 257.992188 C 600.175781 258.523438 600.4375 259.175781 600.4375 259.941406 C 600.4375 260.710938 600.175781 261.359375 599.660156 261.890625 C 599.144531 262.421875 598.515625 262.6875 597.777344 262.6875 C 597.011719 262.6875 596.363281 262.421875 595.832031 261.890625 "/>
<path fill-rule="nonzero" fill="#192725" fill-opacity="1" d="M 637.457031 240.5 C 636.601562 238.699219 635.363281 237.304688 633.738281 236.316406 C 632.113281 235.328125 630.226562 234.832031 628.070312 234.832031 C 625.914062 234.832031 623.972656 235.328125 622.246094 236.316406 C 620.519531 237.304688 619.160156 238.722656 618.171875 240.566406 C 617.183594 242.410156 616.6875 244.546875 616.6875 246.964844 C 616.6875 249.386719 617.183594 251.511719 618.171875 253.34375 C 619.160156 255.171875 620.519531 256.582031 622.246094 257.574219 C 623.972656 258.5625 625.914062 259.054688 628.070312 259.054688 C 631.082031 259.054688 633.5625 258.15625 635.511719 256.355469 C 637.457031 254.554688 638.59375 252.117188 638.921875 249.046875 L 626.609375 249.046875 L 626.609375 245.769531 L 643.214844 245.769531 L 643.214844 248.871094 C 642.980469 251.410156 642.183594 253.734375 640.824219 255.84375 C 639.464844 257.957031 637.679688 259.625 635.464844 260.851562 C 633.25 262.074219 630.785156 262.6875 628.070312 262.6875 C 625.207031 262.6875 622.59375 262.015625 620.230469 260.671875 C 617.867188 259.328125 616 257.460938 614.628906 255.070312 C 613.257812 252.679688 612.570312 249.976562 612.570312 246.964844 C 612.570312 243.953125 613.257812 241.246094 614.628906 238.839844 C 616 236.433594 617.867188 234.558594 620.230469 233.214844 C 622.59375 231.871094 625.207031 231.199219 628.070312 231.199219 C 631.347656 231.199219 634.25 232.011719 636.773438 233.636719 C 639.296875 235.257812 641.132812 237.550781 642.285156 240.5 Z M 637.457031 240.5 "/>
<path fill-rule="nonzero" fill="#192725" fill-opacity="1" d="M 653.820312 238.863281 C 655.132812 238.09375 656.738281 237.710938 658.628906 237.710938 L 658.628906 241.871094 L 657.5625 241.871094 C 653.046875 241.871094 650.789062 244.324219 650.789062 249.226562 L 650.789062 262.421875 L 646.757812 262.421875 L 646.757812 238.152344 L 650.789062 238.152344 L 650.789062 242.09375 C 651.496094 240.707031 652.507812 239.628906 653.820312 238.863281 "/>
<path fill-rule="nonzero" fill="#192725" fill-opacity="1" d="M 676.164062 258.257812 C 677.433594 257.578125 678.460938 256.5625 679.242188 255.203125 C 680.023438 253.84375 680.414062 252.191406 680.414062 250.242188 C 680.414062 248.292969 680.03125 246.640625 679.261719 245.28125 C 678.496094 243.925781 677.492188 242.914062 676.253906 242.25 C 675.011719 241.585938 673.667969 241.253906 672.222656 241.253906 C 670.746094 241.253906 669.394531 241.585938 668.171875 242.25 C 666.945312 242.914062 665.960938 243.925781 665.226562 245.28125 C 664.488281 246.640625 664.117188 248.292969 664.117188 250.242188 C 664.117188 252.222656 664.480469 253.890625 665.203125 255.246094 C 665.925781 256.605469 666.894531 257.617188 668.101562 258.28125 C 669.3125 258.945312 670.644531 259.277344 672.089844 259.277344 C 673.535156 259.277344 674.894531 258.9375 676.164062 258.257812 M 665.910156 261.269531 C 664.066406 260.234375 662.621094 258.769531 661.570312 256.863281 C 660.523438 254.957031 660 252.753906 660 250.242188 C 660 247.761719 660.539062 245.570312 661.617188 243.667969 C 662.691406 241.761719 664.160156 240.300781 666.023438 239.28125 C 667.882812 238.261719 669.964844 237.753906 672.265625 237.753906 C 674.570312 237.753906 676.652344 238.261719 678.511719 239.28125 C 680.371094 240.300781 681.839844 241.753906 682.917969 243.644531 C 683.996094 245.53125 684.535156 247.734375 684.535156 250.242188 C 684.535156 252.753906 683.980469 254.957031 682.875 256.863281 C 681.765625 258.769531 680.269531 260.234375 678.378906 261.269531 C 676.488281 262.304688 674.394531 262.820312 672.089844 262.820312 C 669.816406 262.820312 667.757812 262.304688 665.910156 261.269531 "/>
<path fill-rule="nonzero" fill="#192725" fill-opacity="1" d="M 720.40625 238.152344 L 712.832031 262.421875 L 708.671875 262.421875 L 702.824219 243.15625 L 696.976562 262.421875 L 692.816406 262.421875 L 685.199219 238.152344 L 689.316406 238.152344 L 694.898438 258.523438 L 700.921875 238.152344 L 705.039062 238.152344 L 710.929688 258.570312 L 716.417969 238.152344 Z M 720.40625 238.152344 "/>
<path fill-rule="nonzero" fill="#192725" fill-opacity="1" d="M 721.957031 261.890625 C 721.421875 261.359375 721.160156 260.710938 721.160156 259.941406 C 721.160156 259.175781 721.421875 258.523438 721.957031 257.992188 C 722.488281 257.460938 723.136719 257.195312 723.90625 257.195312 C 724.640625 257.195312 725.269531 257.460938 725.785156 257.992188 C 726.300781 258.523438 726.5625 259.175781 726.5625 259.941406 C 726.5625 260.710938 726.300781 261.359375 725.785156 261.890625 C 725.269531 262.421875 724.640625 262.6875 723.90625 262.6875 C 723.136719 262.6875 722.488281 262.421875 721.957031 261.890625 "/>
<path fill-rule="nonzero" fill="#192725" fill-opacity="1" d="M 744.519531 261.648438 C 742.910156 260.921875 741.648438 259.917969 740.734375 258.632812 C 739.816406 257.351562 739.34375 255.867188 739.316406 254.183594 L 743.609375 254.183594 C 743.757812 255.628906 744.355469 256.851562 745.40625 257.835938 C 746.453125 258.828125 747.980469 259.320312 749.988281 259.320312 C 751.90625 259.320312 753.417969 258.84375 754.527344 257.882812 C 755.632812 256.921875 756.1875 255.691406 756.1875 254.183594 C 756.1875 253.003906 755.863281 252.042969 755.214844 251.304688 C 754.5625 250.566406 753.753906 250.007812 752.777344 249.625 C 751.804688 249.238281 750.488281 248.824219 748.835938 248.382812 C 746.796875 247.851562 745.167969 247.320312 743.941406 246.789062 C 742.71875 246.257812 741.671875 245.421875 740.800781 244.285156 C 739.929688 243.148438 739.492188 241.621094 739.492188 239.703125 C 739.492188 238.019531 739.917969 236.527344 740.777344 235.230469 C 741.632812 233.929688 742.835938 232.925781 744.386719 232.21875 C 745.933594 231.511719 747.714844 231.15625 749.722656 231.15625 C 752.613281 231.15625 754.984375 231.878906 756.832031 233.324219 C 758.675781 234.773438 759.714844 236.691406 759.953125 239.082031 L 755.523438 239.082031 C 755.375 237.902344 754.753906 236.863281 753.664062 235.960938 C 752.570312 235.058594 751.125 234.609375 749.324219 234.609375 C 747.640625 234.609375 746.269531 235.046875 745.207031 235.914062 C 744.140625 236.789062 743.609375 238.007812 743.609375 239.570312 C 743.609375 240.691406 743.929688 241.605469 744.5625 242.316406 C 745.195312 243.023438 745.980469 243.5625 746.910156 243.933594 C 747.839844 244.300781 749.148438 244.722656 750.832031 245.195312 C 752.867188 245.753906 754.503906 246.308594 755.746094 246.855469 C 756.984375 247.402344 758.046875 248.242188 758.933594 249.378906 C 759.820312 250.515625 760.261719 252.058594 760.261719 254.007812 C 760.261719 255.511719 759.863281 256.929688 759.066406 258.257812 C 758.269531 259.585938 757.089844 260.664062 755.523438 261.492188 C 753.960938 262.320312 752.113281 262.730469 749.988281 262.730469 C 747.949219 262.730469 746.128906 262.371094 744.519531 261.648438 "/>
<path fill-rule="nonzero" fill="#192725" fill-opacity="1" d="M 785.949219 238.152344 L 785.949219 262.421875 L 781.917969 262.421875 L 781.917969 258.835938 C 781.152344 260.074219 780.082031 261.042969 778.707031 261.734375 C 777.335938 262.429688 775.820312 262.777344 774.167969 262.777344 C 772.277344 262.777344 770.582031 262.386719 769.074219 261.601562 C 767.570312 260.820312 766.382812 259.648438 765.511719 258.082031 C 764.640625 256.515625 764.203125 254.613281 764.203125 252.367188 L 764.203125 238.152344 L 768.191406 238.152344 L 768.191406 251.835938 C 768.191406 254.230469 768.796875 256.066406 770.003906 257.351562 C 771.214844 258.632812 772.867188 259.277344 774.964844 259.277344 C 777.121094 259.277344 778.816406 258.613281 780.058594 257.285156 C 781.296875 255.957031 781.917969 254.023438 781.917969 251.484375 L 781.917969 238.152344 Z M 785.949219 238.152344 "/>
<path fill-rule="nonzero" fill="#192725" fill-opacity="1" d="M 790.996094 243.667969 C 792 241.792969 793.394531 240.339844 795.183594 239.304688 C 796.96875 238.269531 799.011719 237.753906 801.316406 237.753906 C 804.296875 237.753906 806.753906 238.476562 808.6875 239.925781 C 810.625 241.371094 811.898438 243.378906 812.519531 245.945312 L 808.179688 245.945312 C 807.765625 244.472656 806.960938 243.304688 805.765625 242.449219 C 804.570312 241.59375 803.085938 241.164062 801.316406 241.164062 C 799.011719 241.164062 797.152344 241.953125 795.734375 243.535156 C 794.320312 245.113281 793.609375 247.351562 793.609375 250.242188 C 793.609375 253.167969 794.320312 255.425781 795.734375 257.019531 C 797.152344 258.613281 799.011719 259.410156 801.316406 259.410156 C 803.085938 259.410156 804.5625 258.996094 805.746094 258.171875 C 806.925781 257.34375 807.738281 256.164062 808.179688 254.628906 L 812.519531 254.628906 C 811.871094 257.105469 810.570312 259.09375 808.625 260.582031 C 806.675781 262.074219 804.238281 262.820312 801.316406 262.820312 C 799.011719 262.820312 796.96875 262.304688 795.183594 261.269531 C 793.394531 260.234375 792 258.777344 790.996094 256.886719 C 789.992188 254.996094 789.492188 252.78125 789.492188 250.242188 C 789.492188 247.734375 789.992188 245.542969 790.996094 243.667969 "/>
<path fill-rule="nonzero" fill="#192725" fill-opacity="1" d="M 816.105469 243.667969 C 817.109375 241.792969 818.503906 240.339844 820.292969 239.304688 C 822.078125 238.269531 824.121094 237.753906 826.425781 237.753906 C 829.40625 237.753906 831.867188 238.476562 833.800781 239.925781 C 835.734375 241.371094 837.011719 243.378906 837.628906 245.945312 L 833.289062 245.945312 C 832.875 244.472656 832.070312 243.304688 830.878906 242.449219 C 829.679688 241.59375 828.199219 241.164062 826.425781 241.164062 C 824.121094 241.164062 822.261719 241.953125 820.847656 243.535156 C 819.429688 245.113281 818.71875 247.351562 818.71875 250.242188 C 818.71875 253.167969 819.429688 255.425781 820.847656 257.019531 C 822.261719 258.613281 824.121094 259.410156 826.425781 259.410156 C 828.199219 259.410156 829.671875 258.996094 830.855469 258.171875 C 832.035156 257.34375 832.847656 256.164062 833.289062 254.628906 L 837.628906 254.628906 C 836.980469 257.105469 835.679688 259.09375 833.734375 260.582031 C 831.785156 262.074219 829.347656 262.820312 826.425781 262.820312 C 824.121094 262.820312 822.078125 262.304688 820.292969 261.269531 C 818.503906 260.234375 817.109375 258.777344 816.105469 256.886719 C 815.105469 254.996094 814.601562 252.78125 814.601562 250.242188 C 814.601562 247.734375 815.105469 245.542969 816.105469 243.667969 "/>
<path fill-rule="nonzero" fill="#192725" fill-opacity="1" d="M 858.179688 244.550781 C 857.5 243.445312 856.578125 242.601562 855.410156 242.027344 C 854.246094 241.453125 852.953125 241.164062 851.535156 241.164062 C 849.5 241.164062 847.761719 241.8125 846.332031 243.113281 C 844.898438 244.414062 844.082031 246.214844 843.875 248.515625 L 859.195312 248.515625 C 859.195312 246.980469 858.855469 245.660156 858.179688 244.550781 M 863.226562 251.792969 L 843.828125 251.792969 C 843.976562 254.183594 844.796875 256.050781 846.289062 257.394531 C 847.777344 258.738281 849.585938 259.410156 851.710938 259.410156 C 853.453125 259.410156 854.910156 259.003906 856.074219 258.191406 C 857.242188 257.378906 858.058594 256.296875 858.53125 254.9375 L 862.871094 254.9375 C 862.222656 257.269531 860.921875 259.167969 858.976562 260.628906 C 857.027344 262.089844 854.605469 262.820312 851.710938 262.820312 C 849.410156 262.820312 847.351562 262.304688 845.535156 261.269531 C 843.71875 260.238281 842.292969 258.765625 841.261719 256.863281 C 840.226562 254.960938 839.710938 252.753906 839.710938 250.242188 C 839.710938 247.734375 840.214844 245.535156 841.21875 243.644531 C 842.222656 241.757812 843.632812 240.300781 845.445312 239.28125 C 847.261719 238.261719 849.351562 237.753906 851.710938 237.753906 C 854.015625 237.753906 856.050781 238.257812 857.824219 239.261719 C 859.59375 240.265625 860.960938 241.644531 861.921875 243.398438 C 862.878906 245.15625 863.359375 247.140625 863.359375 249.355469 C 863.359375 250.125 863.316406 250.9375 863.226562 251.792969 "/>
<path fill-rule="nonzero" fill="#192725" fill-opacity="1" d="M 883.863281 244.550781 C 883.183594 243.445312 882.261719 242.601562 881.097656 242.027344 C 879.929688 241.453125 878.636719 241.164062 877.222656 241.164062 C 875.183594 241.164062 873.449219 241.8125 872.015625 243.113281 C 870.585938 244.414062 869.765625 246.214844 869.558594 248.515625 L 884.882812 248.515625 C 884.882812 246.980469 884.542969 245.660156 883.863281 244.550781 M 888.914062 251.792969 L 869.515625 251.792969 C 869.664062 254.183594 870.480469 256.050781 871.972656 257.394531 C 873.464844 258.738281 875.273438 259.410156 877.398438 259.410156 C 879.140625 259.410156 880.59375 259.003906 881.761719 258.191406 C 882.925781 257.378906 883.746094 256.296875 884.21875 254.9375 L 888.558594 254.9375 C 887.910156 257.269531 886.609375 259.167969 884.660156 260.628906 C 882.710938 262.089844 880.292969 262.820312 877.398438 262.820312 C 875.09375 262.820312 873.035156 262.304688 871.21875 261.269531 C 869.40625 260.238281 867.980469 258.765625 866.945312 256.863281 C 865.914062 254.960938 865.398438 252.753906 865.398438 250.242188 C 865.398438 247.734375 865.898438 245.535156 866.902344 243.644531 C 867.90625 241.757812 869.316406 240.300781 871.132812 239.28125 C 872.949219 238.261719 875.035156 237.753906 877.398438 237.753906 C 879.699219 237.753906 881.738281 238.257812 883.511719 239.261719 C 885.28125 240.265625 886.648438 241.644531 887.605469 243.398438 C 888.566406 245.15625 889.046875 247.140625 889.046875 249.355469 C 889.046875 250.125 889 250.9375 888.914062 251.792969 "/>
<path fill-rule="nonzero" fill="#192725" fill-opacity="1" d="M 910.523438 245.460938 C 909.785156 244.101562 908.789062 243.0625 907.535156 242.339844 C 906.28125 241.613281 904.898438 241.253906 903.394531 241.253906 C 901.890625 241.253906 900.515625 241.605469 899.277344 242.316406 C 898.035156 243.023438 897.046875 244.058594 896.308594 245.417969 C 895.570312 246.773438 895.199219 248.367188 895.199219 250.199219 C 895.199219 252.058594 895.570312 253.675781 896.308594 255.046875 C 897.046875 256.421875 898.035156 257.46875 899.277344 258.191406 C 900.515625 258.914062 901.890625 259.277344 903.394531 259.277344 C 904.898438 259.277344 906.28125 258.914062 907.535156 258.191406 C 908.789062 257.46875 909.785156 256.421875 910.523438 255.046875 C 911.261719 253.675781 911.632812 252.074219 911.632812 250.242188 C 911.632812 248.414062 911.261719 246.816406 910.523438 245.460938 M 892.589844 243.667969 C 893.59375 241.792969 894.972656 240.339844 896.726562 239.304688 C 898.484375 238.269531 900.457031 237.753906 902.640625 237.753906 C 904.53125 237.753906 906.289062 238.191406 907.910156 239.0625 C 909.535156 239.933594 910.773438 241.078125 911.632812 242.492188 L 911.632812 229.648438 L 915.707031 229.648438 L 915.707031 262.421875 L 911.632812 262.421875 L 911.632812 257.859375 C 910.835938 259.308594 909.652344 260.496094 908.089844 261.425781 C 906.523438 262.355469 904.695312 262.820312 902.597656 262.820312 C 900.441406 262.820312 898.484375 262.289062 896.726562 261.226562 C 894.972656 260.164062 893.59375 258.671875 892.589844 256.753906 C 891.585938 254.832031 891.082031 252.648438 891.082031 250.199219 C 891.082031 247.71875 891.585938 245.542969 892.589844 243.667969 "/>
<path fill-rule="nonzero" fill="#192725" fill-opacity="1" d="M 920.089844 261.890625 C 919.558594 261.359375 919.292969 260.710938 919.292969 259.941406 C 919.292969 259.175781 919.558594 258.523438 920.089844 257.992188 C 920.621094 257.460938 921.269531 257.195312 922.039062 257.195312 C 922.777344 257.195312 923.402344 257.460938 923.921875 257.992188 C 924.4375 258.523438 924.695312 259.175781 924.695312 259.941406 C 924.695312 260.710938 924.4375 261.359375 923.921875 261.890625 C 923.402344 262.421875 922.777344 262.6875 922.039062 262.6875 C 921.269531 262.6875 920.621094 262.421875 920.089844 261.890625 "/>
</svg>
